# xmcd CD database file
#
# Track frame offsets:
#	150
#	24880
#	44896
#	71031
#	95803
#	125032
#	151141
#	180431
#	197366
#	231002
#
# Disc length: 3486 seconds
#
# Revision: 1
# Processed by: cddbd v1.5.2PL0 Copyright (c) Steve Scherf et al.
# Submitted via: CDex 1.70beta3
#
DISCID=820d9c0a
DTITLE=Junko Moriya Orchestra - Groovin' Forward
DYEAR=2009
DGENRE=Jazz
TTITLE0=Groovin' Forward
TTITLE1=Skyscraper
TTITLE2=Late Summer
TTITLE3=One For The MPCA
TTITLE4=Farewell
TTITLE5=Well You Needn't
TTITLE6=Minor Waltz
TTITLE7=Beautiful Love
TTITLE8=Thousand Cranes
TTITLE9=This Is For Sammy
EXTD=YEAR: 2009
EXTT0=
EXTT1=
EXTT2=
EXTT3=
EXTT4=
EXTT5=
EXTT6=
EXTT7=
EXTT8=
EXTT9=
PLAYORDER=
